<?xml version="1.0" encoding="utf-8"?>
<!-- Generator: Adobe Illustrator 22.0.0, SVG Export Plug-In . SVG Version: 6.00 Build 0)  -->
<svg version="1.1" id="a594ac37-6d44-4297-8862-1cbd9c01c0b7"
	 xmlns="http://www.w3.org/2000/svg" xmlns:xlink="http://www.w3.org/1999/xlink" x="0px" y="0px" viewBox="0 0 1126.2 855"
	 style="enable-background:new 0 0 1126.2 855;" xml:space="preserve">
<style type="text/css">
	.st0{opacity:0.2;fill:url(#SVGID_1_);}
	.st1{opacity:0.2;fill:url(#SVGID_2_);}
	.st2{opacity:0.2;fill:url(#SVGID_3_);}
	.st3{opacity:0.2;fill:url(#SVGID_4_);}
	.st4{opacity:0.2;fill:url(#SVGID_5_);}
	.st5{fill:#2A1838;}
	.st6{fill:#F2F2F2;}
	.st7{fill:#FFD949;}
	.st8{opacity:0.1;enable-background:new    ;}
	.st9{fill:url(#SVGID_6_);}
	.st10{fill:#3F3D56;}
	.st11{fill:url(#SVGID_7_);}
	.st12{fill:#2F2E41;}
	.st13{fill:url(#SVGID_8_);}
	.st14{fill:#D0CDE1;}
	.st15{fill:#FFB9B9;}
	.st16{fill:url(#SVGID_9_);}
	.st17{fill:url(#SVGID_10_);}
	.st18{fill:url(#SVGID_11_);}
</style>
<linearGradient id="SVGID_1_" gradientUnits="userSpaceOnUse" x1="27.5708" y1="381.3878" x2="933.4693" y2="381.3878">
	<stop  offset="0" style="stop-color:#C4B1F2"/>
	<stop  offset="0.3972" style="stop-color:#C2AEF1"/>
	<stop  offset="0.6798" style="stop-color:#BDA5EF"/>
	<stop  offset="0.9262" style="stop-color:#B395EB"/>
	<stop  offset="1" style="stop-color:#AF8FEA"/>
</linearGradient>
<path class="st0" d="M544.9,755.9C302.5,737.5,13.4,549.7,28.1,356.3S322.8-17.1,565.2,1.3s381.9,379.9,367.2,573.3
	C917.7,767.9,787.3,774.4,544.9,755.9z"/>
<linearGradient id="SVGID_2_" gradientUnits="userSpaceOnUse" x1="59.1935" y1="756" x2="1071.1936" y2="756">
	<stop  offset="0" style="stop-color:#C4B1F2"/>
	<stop  offset="0.3972" style="stop-color:#C2AEF1"/>
	<stop  offset="0.6798" style="stop-color:#BDA5EF"/>
	<stop  offset="0.9262" style="stop-color:#B395EB"/>
	<stop  offset="1" style="stop-color:#AF8FEA"/>
</linearGradient>
<ellipse class="st1" cx="565.2" cy="756" rx="506" ry="31"/>
<linearGradient id="SVGID_3_" gradientUnits="userSpaceOnUse" x1="134.1935" y1="755.5" x2="996.1935" y2="755.5">
	<stop  offset="0" style="stop-color:#C4B1F2"/>
	<stop  offset="0.3972" style="stop-color:#C2AEF1"/>
	<stop  offset="0.6798" style="stop-color:#BDA5EF"/>
	<stop  offset="0.9262" style="stop-color:#B395EB"/>
	<stop  offset="1" style="stop-color:#AF8FEA"/>
</linearGradient>
<ellipse class="st2" cx="565.2" cy="755.5" rx="431" ry="20.5"/>
<linearGradient id="SVGID_4_" gradientUnits="userSpaceOnUse" x1="0" y1="836.5" x2="424.3871" y2="836.5">
	<stop  offset="0" style="stop-color:#C4B1F2"/>
	<stop  offset="0.3972" style="stop-color:#C2AEF1"/>
	<stop  offset="0.6798" style="stop-color:#BDA5EF"/>
	<stop  offset="0.9262" style="stop-color:#B395EB"/>
	<stop  offset="1" style="stop-color:#AF8FEA"/>
</linearGradient>
<ellipse class="st3" cx="212.2" cy="836.5" rx="212.2" ry="18.5"/>
<linearGradient id="SVGID_5_" gradientUnits="userSpaceOnUse" x1="31.4516" y1="836.2016" x2="392.9355" y2="836.2016">
	<stop  offset="0" style="stop-color:#C4B1F2"/>
	<stop  offset="0.3972" style="stop-color:#C2AEF1"/>
	<stop  offset="0.6798" style="stop-color:#BDA5EF"/>
	<stop  offset="0.9262" style="stop-color:#B395EB"/>
	<stop  offset="1" style="stop-color:#AF8FEA"/>
</linearGradient>
<ellipse class="st4" cx="212.2" cy="836.2" rx="180.7" ry="12.2"/>
<rect x="196.2" y="162" class="st5" width="752" height="590"/>
<path class="st6" d="M563.6,242.6H378.1c-1.2,0-2.3-1-2.3-2.2s1-2.3,2.2-2.3c0,0,0,0,0,0h185.5c1.2,0,2.2,1,2.2,2.3
	C565.9,241.6,564.9,242.6,563.6,242.6z"/>
<path class="st6" d="M766.7,267.4H474.9c-1.2,0-2.3-1-2.3-2.3s1-2.3,2.3-2.3l0,0h291.8c1.2,0,2.3,1,2.3,2.3S768,267.4,766.7,267.4z"
	/>
<path class="st6" d="M564.5,292.2H379c-1.2,0-2.3-1-2.3-2.3s1-2.3,2.3-2.3h185.5c1.2,0,2.3,1,2.3,2.3S565.8,292.2,564.5,292.2z"/>
<path class="st6" d="M766.7,292.6H581.2c-1.2,0-2.3-1-2.3-2.3s1-2.3,2.3-2.3h185.5c1.2,0,2.3,1,2.3,2.3S768,292.6,766.7,292.6z"/>
<path class="st6" d="M565,316.9H379.5c-1.2,0-2.3-1-2.3-2.3s1-2.3,2.3-2.3H565c1.2,0,2.3,1,2.3,2.3S566.2,316.9,565,316.9z"/>
<path class="st6" d="M565.4,341.7H379.9c-1.2,0-2.3-1-2.3-2.3s1-2.3,2.3-2.3h185.5c1.2,0,2.3,1,2.3,2.3S566.7,341.7,565.4,341.7z"/>
<path class="st6" d="M649.6,243.1h-53.1c-1.2,0-2.3-1-2.3-2.3s1-2.3,2.3-2.3l0,0h53.1c1.2,0,2.3,1,2.3,2.3S650.9,243.1,649.6,243.1z
	"/>
<path class="st6" d="M649.6,316.9h-53.1c-1.2,0-2.3-1-2.3-2.3s1-2.3,2.3-2.3l0,0h53.1c1.2,0,2.3,1,2.3,2.3S650.9,316.9,649.6,316.9z
	"/>
<path class="st6" d="M649.6,341.2h-53.1c-1.2,0-2.3-1-2.3-2.2s1-2.3,2.2-2.3c0,0,0,0,0,0h53.1c1.2,0,2.3,1,2.3,2.2
	S650.9,341.2,649.6,341.2C649.7,341.2,649.6,341.2,649.6,341.2z"/>
<path class="st6" d="M738.8,341.2h-53.1c-1.2,0-2.2-1-2.2-2.3c0-1.2,1-2.2,2.2-2.2h53.1c1.2,0,2.3,1,2.3,2.2
	S740.1,341.2,738.8,341.2C738.8,341.2,738.8,341.2,738.8,341.2z"/>
<path class="st6" d="M430.8,267.4h-53.1c-1.2,0-2.3-1-2.3-2.3s1-2.3,2.3-2.3l0,0h53.1c1.2,0,2.3,1,2.3,2.3S432,267.4,430.8,267.4z"
	/>
<path class="st6" d="M563.9,607.4H378.3c-1.2,0-2.3-1-2.3-2.3c0-1.2,1-2.3,2.3-2.3l0,0h185.5c1.2,0,2.3,1,2.3,2.3
	C566.1,606.4,565.1,607.4,563.9,607.4z"/>
<path class="st6" d="M563,656.9H377.4c-1.2,0-2.3-1-2.3-2.3c0-1.2,1-2.3,2.3-2.3l0,0H563c1.2,0,2.3,1,2.3,2.3
	C565.2,655.9,564.2,656.9,563,656.9z"/>
<path class="st6" d="M563.4,681.7H377.9c-1.2,0-2.3-1-2.3-2.3c0-1.2,1-2.3,2.3-2.3l0,0h185.5c1.2,0,2.3,1,2.3,2.3
	C565.7,680.6,564.7,681.7,563.4,681.7z"/>
<path class="st6" d="M642.7,657.3h-53.1c-1.2,0-2.3-1-2.3-2.3c0-1.2,1-2.3,2.3-2.3h53.1c1.2,0,2.3,1,2.3,2.3
	C644.9,656.3,643.9,657.3,642.7,657.3L642.7,657.3z"/>
<path class="st6" d="M642.7,681.7h-53.1c-1.2,0-2.3-1-2.3-2.3c0-1.2,1-2.3,2.3-2.3h53.1c1.2,0,2.3,1,2.3,2.3
	C644.9,680.6,643.9,681.7,642.7,681.7L642.7,681.7z"/>
<path class="st6" d="M731.8,657.3h-53.1c-1.2,0-2.3-1-2.3-2.3c0-1.2,1-2.3,2.3-2.3h53.1c1.2,0,2.3,1,2.3,2.3
	C734.1,656.3,733.1,657.3,731.8,657.3z"/>
<path class="st6" d="M766.9,632.1H475.2c-1.2,0-2.3-1-2.3-2.3c0-1.2,1-2.3,2.3-2.3h291.8c1.2,0,2.3,1,2.3,2.3
	C769.2,631.1,768.2,632.1,766.9,632.1z"/>
<path class="st6" d="M431,632.1h-53.1c-1.2,0-2.3-1-2.3-2.3c0-1.2,1-2.3,2.3-2.3l0,0H431c1.2,0,2.3,1,2.3,2.3
	C433.3,631.1,432.3,632.1,431,632.1z"/>
<path class="st6" d="M766.9,706.9H475.2c-1.2,0-2.3-1-2.3-2.3c0-1.2,1-2.3,2.3-2.3h291.8c1.2,0,2.3,1,2.3,2.3
	C769.2,705.9,768.2,706.9,766.9,706.9L766.9,706.9z"/>
<path class="st6" d="M431,706.9h-53.1c-1.2,0-2.3-1-2.3-2.3c0-1.2,1-2.3,2.3-2.3l0,0H431c1.2,0,2.3,1,2.3,2.3
	C433.3,705.9,432.3,706.9,431,706.9z"/>
<polygon class="st7" points="519.1,401.1 447,472.3 519.1,543.4 535.3,527.2 480.8,472.7 535.7,417.8 "/>
<polygon class="st7" points="625.3,401.1 697.4,472.3 625.3,543.4 609.1,527.2 663.6,472.7 608.7,417.8 "/>
<circle class="st7" cx="216.2" cy="177" r="9"/>
<circle class="st7" cx="240.2" cy="177" r="9"/>
<circle class="st7" cx="264.2" cy="177" r="9"/>
<rect x="196.2" y="192" class="st8" width="752" height="3"/>
<linearGradient id="SVGID_6_" gradientUnits="userSpaceOnUse" x1="956.8408" y1="578.0233" x2="1126.1936" y2="578.0233">
	<stop  offset="0" style="stop-color:#C4B1F2"/>
	<stop  offset="0.3972" style="stop-color:#C2AEF1"/>
	<stop  offset="0.6798" style="stop-color:#BDA5EF"/>
	<stop  offset="0.9262" style="stop-color:#B395EB"/>
	<stop  offset="1" style="stop-color:#AF8FEA"/>
</linearGradient>
<path class="st9" d="M1126.2,607.5c0,63.8-37.9,86-84.7,86s-84.7-22.3-84.7-86s84.7-144.9,84.7-144.9S1126.2,543.7,1126.2,607.5z"/>
<polygon class="st10" points="1038.4,683.7 1039.3,630.4 1075.4,564.3 1039.4,622 1039.8,598 1064.7,550.2 1039.9,591.6 
	1039.9,591.6 1040.6,548.5 1067.3,510.5 1040.7,541.7 1041.2,462.6 1038.4,567.3 1038.7,563 1011.6,521.6 1038.2,571.3 
	1035.7,619.5 1035.6,618.2 1004.4,574.6 1035.5,622.7 1035.2,628.8 1035.2,628.9 1035.2,629.4 1028.8,751.7 1037.3,751.7 
	1038.4,688.5 1069.4,640.5 "/>
<linearGradient id="SVGID_7_" gradientUnits="userSpaceOnUse" x1="126.9883" y1="763.1225" x2="151.4903" y2="763.1225">
	<stop  offset="0" style="stop-color:#C4B1F2"/>
	<stop  offset="0.3972" style="stop-color:#C2AEF1"/>
	<stop  offset="0.6798" style="stop-color:#BDA5EF"/>
	<stop  offset="0.9262" style="stop-color:#B395EB"/>
	<stop  offset="1" style="stop-color:#AF8FEA"/>
</linearGradient>
<polygon class="st11" points="130.9,744.4 127,781.8 148.9,779.2 151.5,748.3 "/>
<path class="st12" d="M72.8,460.7c0,0-112.2,108.3-41.3,141.9h21.9c0,0,47.7-78.7,70.9-77.4l6.4,74.8L127,750.9l28.4,1.3
	c0,0,16.8-76.1,15.5-118.6l29.7-157.3L72.8,460.7z"/>
<path class="st12" d="M38,597.4l15.5,5.2c0,0,60.6-14.2,64.5-12.9l12-0.1l-0.4-30.9H78L38,597.4z"/>
<path class="st12" d="M151.5,774.1c0,0-23.2-10.3-27.1,0s-2.6,40-2.6,40s5.2,9,2.6,19.3s10.3,15.5,27.1,10.3s16.8-18.1,16.8-18.1
	L151.5,774.1z"/>
<path class="st12" d="M177.9,556.1c0,0,24.2-10.3,22.5,5.2S190,591,190,591s22.5,43.8,0,47.7s-39.8-5.2-39.8-11.6
	S177.9,556.1,177.9,556.1z"/>
<linearGradient id="SVGID_8_" gradientUnits="userSpaceOnUse" x1="114.0913" y1="236.3125" x2="163.0973" y2="236.3125">
	<stop  offset="0" style="stop-color:#C4B1F2"/>
	<stop  offset="0.3972" style="stop-color:#C2AEF1"/>
	<stop  offset="0.6798" style="stop-color:#BDA5EF"/>
	<stop  offset="0.9262" style="stop-color:#B395EB"/>
	<stop  offset="1" style="stop-color:#AF8FEA"/>
</linearGradient>
<polygon class="st13" points="114.1,202.8 116.7,251.8 138.6,271.1 163.1,236.3 163.1,201.5 "/>
<path class="st14" d="M130.9,251.8l-14.8-11l-9.7,14.8l-43.8,25.8l25.8,67.1l1.3,65.8c0,0-47.7,49-19.3,55.5s129,20.6,134.1,9
	s-6.4-131.5-6.4-131.5l3.9-101.9l-38.7-14L130.9,251.8z"/>
<path class="st15" d="M52.2,333.5c0,0-10.3,73.1,9,73.1c11.5,0,22.9-2.2,33.5-6.4l-15.5-40l6.4-27.1L52.2,333.5z"/>
<path class="st15" d="M81.9,397.5l14.2,2.6c0,0,41.3-25.8,43.8-27.1s-41.3-23.2-41.3-23.2L69,361.4L81.9,397.5z"/>
<linearGradient id="SVGID_9_" gradientUnits="userSpaceOnUse" x1="49.4415" y1="369.7886" x2="139.9936" y2="369.7886">
	<stop  offset="0" style="stop-color:#C4B1F2"/>
	<stop  offset="0.2895" style="stop-color:#C2AEF1"/>
	<stop  offset="0.4644" style="stop-color:#BDA5EF"/>
	<stop  offset="0.6903" style="stop-color:#B395EB"/>
	<stop  offset="1" style="stop-color:#AF8FEA"/>
</linearGradient>
<path class="st16" d="M98.6,349.8L80,357.1l5.7-24.1l-33.5,0.4c0,0-10.3,73.1,9,73.1c11.5,0,22.9-2.2,33.5-6.4l-0.1-0.3l1.4,0.3
	c0,0,41.3-25.8,43.8-27.1S98.6,349.8,98.6,349.8z"/>
<linearGradient id="SVGID_10_" gradientUnits="userSpaceOnUse" x1="108.1737" y1="185.9868" x2="176.8579" y2="185.9868">
	<stop  offset="0" style="stop-color:#C4B1F2"/>
	<stop  offset="0.3972" style="stop-color:#C2AEF1"/>
	<stop  offset="0.6798" style="stop-color:#BDA5EF"/>
	<stop  offset="0.9262" style="stop-color:#B395EB"/>
	<stop  offset="1" style="stop-color:#AF8FEA"/>
</linearGradient>
<ellipse class="st17" cx="142.5" cy="186" rx="34.3" ry="37.9"/>
<path class="st12" d="M112.2,143.3l-6.7-3c0,0,14-17,33.5-15.5l-5.5-6.7c0,0,13.4-5.9,25.6,9.6c6.4,8.2,13.8,17.8,18.5,28.6h7.2
	l-3,7.3l10.5,7.3l-10.8-1.3c1,6.3,0.7,12.7-1,18.9l0.3,5.8c0,0-12.5-21.3-12.5-24.3v7.4c0,0-6.7-6.7-6.7-11.1l-3.7,5.2l-1.8-8.1
	l-22.6,8.1l3.7-6.7l-14,2.2l5.5-8.1c0,0-15.9,9.6-16.5,17.8c-0.6,8.1-8.5,18.5-8.5,18.5l-3.7-7.4C100,187.7,94.5,154.4,112.2,143.3z
	"/>
<linearGradient id="SVGID_11_" gradientUnits="userSpaceOnUse" x1="79.2719" y1="347.8886" x2="214.6821" y2="347.8886">
	<stop  offset="0" style="stop-color:#C4B1F2"/>
	<stop  offset="0.3972" style="stop-color:#C2AEF1"/>
	<stop  offset="0.6798" style="stop-color:#BDA5EF"/>
	<stop  offset="0.9262" style="stop-color:#B395EB"/>
	<stop  offset="1" style="stop-color:#AF8FEA"/>
</linearGradient>
<path class="st18" d="M176,311.1c0,0-10.3,11.6-10.3,28.4l-68.3-2.6c0,0-18.1-2.6-18.1,10.3v12.9c0,0,9-3.9,14.2,0
	s60.6,37.4,87.7,24.5s33.5-63.2,33.5-63.2S190.2,300.8,176,311.1z"/>
<path class="st14" d="M191.5,246.6l10.3-1.3c0,0,20.6,2.6,18.1,42.6s-3.9,42.6-3.9,42.6s-27.1-24.5-46.4-12.9L191.5,246.6z"/>
<path class="st14" d="M67.7,281.4h-5.2c-6.7,8.4-10.3,18.9-10.3,29.7c-0.1,11.5-1.6,23-4.5,34.2l40.6-7.1L67.7,281.4z"/>
</svg>
