<svg xmlns="http://www.w3.org/2000/svg" enable-background="new 0 0 24 24" viewBox="0 0 24 24"><path fill="#303c42" d="M22.5,1h-21C1.224,1,1,1.224,1,1.5v21C1,22.776,1.224,23,1.5,23h21c0.276,0,0.5-0.224,0.5-0.5v-21   C23,1.224,22.776,1,22.5,1z"/><rect width="20" height="20" x="2" y="2" fill="#4dd0e1"/><rect width="18" height="18" x="3" y="3" fill="#283593"/><path fill="#4dd0e1" d="M7.5 17C7.776 17 8 16.776 8 16.5v-3.33c1.15.224 2.575-.037 3.584-.698C12.497 11.873 13 10.995 13 10c0-.907-.31-1.637-.92-2.17-1.193-1.042-3.184-1.024-4.647-.826C7.185 7.038 7 7.25 7 7.5v4.989c0 .007 0 .015 0 .022V16.5C7 16.776 7.224 17 7.5 17zM8 7.945c1.565-.153 2.771.07 3.422.638C11.811 8.923 12 9.386 12 10c0 .666-.324 1.216-.964 1.636-.839.55-2.127.754-3.036.509V7.945zM15.769 13.855C16.644 14.152 17 14.339 17 15c0 .736-.356.888-.474.938-.559.237-1.424-.05-1.679-.297-.199-.191-.515-.186-.707.012-.192.199-.187.515.012.707.36.348 1.127.664 1.889.664.301 0 .602-.049.875-.166C17.322 16.687 18 16.217 18 15c0-1.444-1.104-1.818-1.911-2.091C15.299 12.641 15 12.493 15 12c0-.454.167-.747.508-.894.532-.228 1.323-.049 1.648.257.2.189.517.181.707-.02.19-.201.181-.518-.02-.707-.651-.616-1.876-.818-2.731-.449C14.395 10.497 14 11.141 14 12 14 13.256 15.022 13.603 15.769 13.855z"/><linearGradient id="a" x1="-1.1" x2="25.1" y1="5.891" y2="18.108" gradientUnits="userSpaceOnUse"><stop offset="0" stop-color="#fff" stop-opacity=".2"/><stop offset="1" stop-color="#fff" stop-opacity="0"/></linearGradient><path fill="url(#a)" d="M22.5,1h-21C1.224,1,1,1.224,1,1.5v21C1,22.776,1.224,23,1.5,23h21   c0.276,0,0.5-0.224,0.5-0.5v-21C23,1.224,22.776,1,22.5,1z"/></svg>