<svg xmlns="http://www.w3.org/2000/svg" enable-background="new 0 0 24 24" viewBox="0 0 24 24"><path fill="#303c42" d="M23.952,8.285c-0.012-0.026-0.038-0.039-0.054-0.062l0.013-0.009l-4.5-6.5   c-0.089-0.128-0.229-0.199-0.376-0.21l0-0.004l-7.003-0.495c-0.016-0.001-0.031-0.004-0.047-0.003L11.965,1l-7,0.5l0,0.004   c-0.148,0.01-0.288,0.082-0.376,0.21l-4.5,6.5l0.013,0.009C0.086,8.246,0.06,8.259,0.048,8.285   C-0.035,8.46-0.009,8.667,0.113,8.816l11.5,14.001C11.709,22.933,11.851,23,12,23s0.291-0.067,0.387-0.183l11.5-14.001   C24.009,8.667,24.035,8.46,23.952,8.285z"/><polygon fill="#ffa000" points="22.546 8 19.963 8 19.641 3.803"/><polygon fill="#ffb300" points="13.375 2.099 18.535 2.468 18.903 7.259"/><polygon fill="#ffd54f" points="18.232 8 5.768 8 12 2.184"/><polygon fill="#ffb300" points="5.097 7.259 5.465 2.468 10.63 2.095"/><polygon fill="#ffca28" points="18.665 9 12 21.442 5.335 9"/><polygon fill="#ffa000" points="4.037 8 1.454 8 4.359 3.803"/><polygon fill="#ff8f00" points="4.201 9 9.157 18.251 1.558 9"/><polygon fill="#ff8f00" points="14.843 18.251 19.799 9 22.442 9"/><linearGradient id="a" x1="1.289" x2="21.087" y1="5.624" y2="14.856" gradientUnits="userSpaceOnUse"><stop offset="0" stop-color="#fff" stop-opacity=".2"/><stop offset="1" stop-color="#fff" stop-opacity="0"/></linearGradient><path fill="url(#a)" d="M23.952,8.285c-0.012-0.026-0.038-0.039-0.054-0.062l0.013-0.009l-4.5-6.5   c-0.089-0.128-0.229-0.199-0.376-0.21l0-0.004l-7.003-0.495c-0.016-0.001-0.031-0.004-0.047-0.003L11.965,1l-7,0.5l0,0.004   c-0.148,0.01-0.288,0.082-0.376,0.21l-4.5,6.5l0.013,0.009C0.086,8.246,0.06,8.259,0.048,8.285   C-0.035,8.46-0.009,8.667,0.113,8.816l11.5,14.001C11.709,22.933,11.851,23,12,23s0.291-0.067,0.387-0.183l11.5-14.001   C24.009,8.667,24.035,8.46,23.952,8.285z"/></svg>